<?xml version="1.0" standalone="no"?>
<!DOCTYPE svg PUBLIC "-//W3C//DTD SVG 20010904//EN"
 "http://www.w3.org/TR/2001/REC-SVG-20010904/DTD/svg10.dtd">
<svg version="1.0" xmlns="http://www.w3.org/2000/svg"
 width="412.000000pt" height="514.000000pt" viewBox="0 0 412.000000 514.000000"
 preserveAspectRatio="xMidYMid meet">

<g transform="translate(0.000000,514.000000) scale(0.100000,-0.100000)"
fill="#ffffff" stroke="none">
<path d="M3413 5065 c-17 -7 -36 -22 -41 -32 -15 -29 -21 -85 -14 -128 6 -31
12 -40 27 -40 17 0 21 9 26 64 5 54 10 67 33 83 16 12 26 29 26 44 0 27 -11
29 -57 9z"/>
<path d="M1495 4854 c-80 -28 -164 -89 -245 -179 -52 -57 -140 -185 -140 -204
0 -6 -9 -24 -20 -39 -31 -42 -106 -239 -120 -316 -16 -86 -7 -193 21 -249 27
-54 92 -115 149 -141 37 -17 69 -21 185 -23 77 -2 146 -5 153 -8 6 -2 12 -16
12 -30 0 -30 -64 -193 -100 -255 -65 -111 -171 -322 -185 -366 -33 -110 -11
-164 68 -164 39 0 108 17 162 40 66 28 147 50 186 50 57 -1 227 -25 236 -34 4
-4 1 -18 -7 -31 -21 -33 -201 -242 -307 -356 -48 -52 -126 -137 -173 -189 -47
-52 -101 -111 -120 -131 -64 -66 -154 -163 -255 -274 -55 -60 -136 -148 -181
-195 -254 -268 -424 -460 -424 -479 0 -6 -4 -11 -8 -11 -17 0 -151 -210 -205
-320 -80 -167 -101 -242 -94 -345 5 -82 9 -92 52 -136 74 -75 208 -95 557 -79
468 20 868 102 1228 253 111 46 308 144 399 199 34 21 65 38 66 38 10 0 209
140 270 189 140 113 192 164 251 249 71 101 92 229 59 357 -25 95 -151 348
-227 458 -134 190 -341 376 -578 520 -95 57 -183 126 -207 162 -23 34 -24 40
-12 61 8 13 88 102 179 200 91 97 173 186 183 198 10 12 49 55 86 96 37 41
150 167 251 280 100 113 197 221 214 240 65 71 126 151 126 165 0 31 -37 12
-80 -40 -25 -30 -70 -82 -102 -116 l-56 -62 31 101 c26 82 36 102 51 102 32 0
80 37 135 105 31 37 68 72 87 80 18 7 65 42 103 77 94 85 92 84 145 102 64 22
66 21 63 -21 -2 -30 2 -38 17 -41 45 -9 63 81 25 119 -41 41 -142 12 -245 -69
-38 -30 -53 -37 -65 -29 -26 16 -44 3 -92 -70 -49 -73 -152 -191 -160 -183 -2
3 0 34 5 70 12 81 0 120 -36 120 -17 0 -31 -10 -43 -30 -9 -16 -23 -30 -30
-30 -7 0 -20 -12 -30 -26 -16 -26 -17 -26 -25 -5 -4 13 -16 21 -31 21 -23 0
-24 -3 -24 -72 0 -96 -12 -146 -57 -244 -37 -76 -40 -80 -67 -76 -16 2 -36 -1
-43 -8 -12 -9 -15 -5 -18 27 -3 33 -6 38 -28 38 -25 0 -25 0 -22 -80 2 -51 -2
-94 -11 -120 l-14 -39 -18 27 c-13 20 -26 27 -50 27 -40 0 -60 -21 -90 -96
-15 -36 -32 -61 -45 -66 -11 -4 -29 -27 -39 -50 l-18 -43 1 45 c1 42 -1 45
-24 45 -24 0 -26 -4 -37 -90 -7 -49 -19 -145 -29 -213 -9 -67 -13 -129 -10
-138 4 -9 15 -14 28 -12 18 2 25 12 32 48 5 25 10 46 11 48 1 1 16 -3 32 -11
l31 -12 -72 -75 c-68 -71 -72 -74 -89 -57 -24 24 -54 21 -84 -9 -25 -25 -30
-26 -97 -20 -198 19 -222 19 -277 2 -30 -10 -63 -22 -74 -27 -11 -5 -55 -18
-99 -30 -69 -18 -80 -19 -93 -6 -20 20 -11 50 64 212 7 17 22 44 32 60 42 70
159 304 174 349 9 27 17 73 17 103 0 79 -17 87 -189 88 -153 2 -183 10 -249
69 -58 53 -87 135 -79 229 8 96 87 314 148 407 9 14 29 45 45 70 90 140 229
256 341 285 55 14 58 14 98 -10 131 -76 205 -326 205 -687 0 -119 3 -148 14
-148 7 0 16 10 20 23 11 42 6 292 -9 402 -22 169 -41 238 -83 320 -60 115
-114 155 -206 154 -34 0 -79 -7 -101 -15z m1248 -766 c4 -32 -15 -78 -26 -61
-8 12 4 93 13 93 4 0 10 -15 13 -32z m-33 -169 c-5 -15 -13 -35 -18 -45 -9
-16 -10 -16 -19 2 -6 10 -8 35 -6 55 5 34 6 35 28 25 19 -8 21 -15 15 -37z
m-130 -130 c-16 -35 -30 -57 -30 -49 0 15 52 121 58 116 1 -2 -11 -32 -28 -67z
m79 -49 c-40 -44 -74 -80 -75 -80 -2 0 8 29 21 65 14 36 25 68 25 71 0 3 15 2
33 -1 24 -5 37 -2 46 9 8 9 15 16 18 16 2 0 -28 -36 -68 -80z m-196 -5 c-3 -9
-8 -14 -10 -11 -3 3 -2 9 2 15 9 16 15 13 8 -4z m88 -93 c27 4 26 3 -21 -46
-26 -28 -63 -69 -81 -91 -50 -59 -59 -68 -65 -62 -9 8 7 97 17 97 5 0 9 -4 9
-10 0 -5 11 -10 24 -10 29 0 40 25 30 65 -4 17 0 38 12 60 17 33 18 33 32 13
10 -14 23 -19 43 -16z m-236 -44 c18 -61 19 -89 4 -141 -11 -43 -31 -56 -55
-36 -12 10 -14 23 -9 61 6 39 4 48 -8 48 -13 0 -13 6 -4 38 6 20 14 39 17 42
4 3 9 13 13 23 11 30 26 18 42 -35z m-149 -165 c-11 -11 -17 4 -9 23 7 18 8
18 11 1 2 -10 1 -21 -2 -24z m-1 -121 c-4 -26 -11 -57 -17 -69 -27 -56 -53 47
-28 112 8 22 13 24 30 15 18 -10 20 -17 15 -58z m117 40 c13 -6 9 -15 -28 -57
l-43 -50 6 39 c3 22 13 48 22 58 17 20 18 20 43 10z m-261 -679 c24 -17 56
-38 69 -45 14 -7 46 -28 72 -46 26 -17 49 -32 53 -32 3 0 23 -12 43 -27 285
-215 424 -377 569 -668 53 -105 91 -214 99 -278 11 -92 -32 -200 -118 -298
-88 -100 -345 -293 -543 -406 -77 -44 -356 -182 -393 -194 -20 -6 -41 -15 -47
-19 -13 -10 -240 -83 -323 -105 l-64 -16 -43 26 c-24 14 -51 25 -59 25 -25 0
-19 -26 10 -48 l27 -19 -89 -17 c-49 -9 -179 -28 -289 -43 -171 -23 -237 -27
-450 -28 -250 0 -250 0 -306 26 -34 16 -68 42 -85 65 -26 34 -29 45 -28 108 1
81 17 131 83 266 50 103 102 188 169 278 24 31 64 85 90 119 26 35 52 63 58
63 7 0 29 19 50 43 20 23 184 193 364 377 350 359 470 484 571 595 34 39 83
92 109 119 71 77 72 78 141 156 36 41 78 92 93 112 l28 38 47 -48 c26 -26 67
-61 92 -79z"/>
</g>
</svg>
